# xmcd
#
# Track frame offsets: 
#        150
#        84262
#        129650
#        183225
#        250027
#        257807
#
# Disc length: 4608 seconds
#
# Revision: 0
# Processed by: cddbd v1.5.2PL0 Copyright (c) Steve Scherf et al.
# Submitted via: ExactAudioCopy v0.95b4
#
DISCID=4511fe06
DTITLE=Geoffrey Douglas Madge, Ilya Stupel, Artur Rubinstein Philharmo
DTITLE=nic - Medtner: Piano concertos 2 and 3
DYEAR=1991
DGENRE=Classical
TTITLE0=Concerto, piano, no. 02, c minor   Toccata (Allegro risoluto) 
TTITLE0=Op. 50
TTITLE1=Concerto, piano, no. 02, c minor   Romanza (Andante con moto) 
TTITLE1=Op. 50
TTITLE2=Concerto, piano, no. 02, c minor   Divertimento (Allegro risol
TTITLE2=uto e molto vivace)  Op. 50
TTITLE3=Concerto, piano, no. 03, e minor   Con moto largamente -  Op. 
TTITLE3=60
TTITLE4=Concerto, piano, no. 03, e minor   Interludium: Allegro, molto
TTITLE4=sostenuto, misterioso -  Op. 60 
TTITLE5=Concerto, piano, no. 03, e minor   Finale: Allegro molto.  Sve
TTITLE5=gliando, eroico -  Op. 60
EXTD=
EXTT0=
EXTT1=
EXTT2=
EXTT3=
EXTT4=
EXTT5=
PLAYORDER=
